# xmcd
#
# Track frame offsets: 
#        150
#        9252
#        19052
#        31837
#        44103
#        56516
#        66964
#        78386
#        90668
#        106518
#        115985
#        126049
#        145287
#        161287
#        177759
#        190952
#        204697
#        218500
#        231211
#        245155
#
# Disc length: 3440 seconds
#
# Revision: 1
# Processed by: cddbd v1.5.2PL0 Copyright (c) Steve Scherf et al.
# Submitted via: ExactAudioCopy v0.99pb5
#
DISCID=0c0d6e14
DTITLE=Various Artist - Vintage Bluegrass Masters
DYEAR=2006
DGENRE=Bluegrass
TTITLE0=Bill Monroe - Blue Moon Of Kentucky
TTITLE1=Bill Monroe - Y´All Come
TTITLE2=Bill Monroe - I´M Blue I´M Lonesome
TTITLE3=Bill Monroe - Uncle Penn
TTITLE4=Bill Monroe - Molly And Tenbrooks
TTITLE5=Bill Monroe - Bluegrass Breakdown
TTITLE6=Bill Monroe - Orange Blossom Special
TTITLE7=Bill Monroe - Mule Skinners Blues
TTITLE8=Charlie Monroe - Rosa Lee McFall
TTITLE9=Charlie Monroe - No Home No Place To Pillow My Head
TTITLE10=Charlie Monroe - The Great Speckled Bird
TTITLE11=Ernest Stoneman - Hop Light Ladies
TTITLE12=Ernest Stoneman - Careless Love
TTITLE13=Ernest Stoneman - Sally Goodin
TTITLE14=Uncle Dave Macon - Carve That Possum
TTITLE15=Uncle Dave Macon - Hold The Woodpile Down
TTITLE16=Uncle Dave Macon - Go Along Mule
TTITLE17=Gid Tanner - Hawkings´ Rag
TTITLE18=Gid Tanner - Tanner´S Boarding House
TTITLE19=Gid Tanner - On Tanner´S Farm
EXTD=
EXTT0=
EXTT1=
EXTT2=
EXTT3=
EXTT4=
EXTT5=
EXTT6=
EXTT7=
EXTT8=
EXTT9=
EXTT10=
EXTT11=
EXTT12=
EXTT13=
EXTT14=
EXTT15=
EXTT16=
EXTT17=
EXTT18=
EXTT19=
PLAYORDER=
